<svg width="100" height="100" viewBox="0 0 100 100" fill="none" xmlns="http://www.w3.org/2000/svg" xmlns:xlink="http://www.w3.org/1999/xlink">
<g clip-path="url(#clip0_2549_1310)">
<path fill-rule="evenodd" clip-rule="evenodd" d="M49.9681 0C77.5646 0 99.9362 22.3715 99.9362 49.968C99.9362 77.5645 77.5646 99.936 49.9681 99.936C22.3715 99.936 0 77.5645 0 49.968C0 22.3715 22.3715 0 49.9681 0Z" fill="#E0C171"/>
<path fill-rule="evenodd" clip-rule="evenodd" d="M49.9681 6.96129C73.7199 6.96129 92.9748 26.2161 92.9748 49.968C92.9748 73.7197 73.7199 92.9746 49.9681 92.9746C26.2163 92.9746 6.9614 73.7197 6.9614 49.968C6.9614 26.2161 26.2163 6.96129 49.9681 6.96129Z" fill="#7F2B0A"/>
<path d="M25.4853 27.5633C27.0203 25.7829 26.7122 23.5573 25.0962 22.1624C23.4817 20.7663 21.5211 20.9704 20.0158 22.7172C18.2021 24.8201 19.0783 26.9601 20.2843 28.0009C21.5331 29.0799 23.7503 29.5762 25.4853 27.5633ZM25.3868 26.965C24.2265 28.3115 22.3676 28.1121 20.8999 26.8444C19.143 25.3274 19.4835 24.0196 20.1793 23.213C21.1711 22.0629 22.9314 22.0048 24.5108 23.3695C26.5493 25.1305 25.8104 26.4734 25.3868 26.965Z" fill="#F3EB1D"/>
<path d="M30.5988 23.9494C30.9898 23.6524 31.3515 23.2729 31.5401 22.7564C31.8065 22.0053 31.5791 21.3697 31.2528 20.9402C30.7157 20.235 30.0094 19.9635 28.6027 19.9655L28.2789 19.9668C27.3105 19.9632 26.9434 19.8329 26.683 19.4908C26.3447 19.0456 26.435 18.475 26.9805 18.062C27.4597 17.6983 27.844 17.7591 28.0613 17.815C28.3633 17.8903 28.5754 18.0934 28.6251 18.1599C28.6929 18.2486 28.7494 18.2766 28.8013 18.2365C28.8598 18.1915 28.8367 18.1165 28.7134 17.9534C28.2726 17.3752 28.1385 17.1373 28.0649 17.0406C28.0259 16.9885 27.9714 16.9945 27.8947 17.0294C27.6633 17.1233 27.2972 17.2844 26.8165 17.6483C25.7916 18.4252 25.5575 19.5258 26.1789 20.3417C26.6361 20.9424 27.311 21.2489 28.6085 21.2715L29.1504 21.2813C30.1294 21.2992 30.4998 21.5563 30.7767 21.9206C31.0761 22.3136 31.0941 23.0112 30.4306 23.5153C29.9735 23.8611 29.385 23.991 28.8059 23.565C28.6733 23.4684 28.5246 23.3337 28.4508 23.2372C28.4056 23.1784 28.3482 23.118 28.2819 23.167C28.2222 23.2116 28.2633 23.3105 28.3396 23.4276C28.4218 23.5523 28.7319 24.0199 29.0417 24.427C29.1668 24.5902 29.216 24.6103 29.3747 24.5732C29.7984 24.4741 30.1701 24.2743 30.5988 23.9494Z" fill="#F3EB1D"/>
<path d="M32.6372 18.4841C33.1445 19.7351 33.7307 20.243 34.3295 20.4646C35.1885 20.7821 36.0252 20.478 36.4823 20.2953C37.0406 20.0713 37.6226 19.7288 38.0197 18.9575C38.4902 18.0472 38.1721 16.9911 37.784 16.0341L37.4089 15.1097C36.8765 13.7995 36.7783 13.5573 36.684 13.2745C36.5793 12.9656 36.5884 12.7905 36.8028 12.6546C36.8982 12.5965 36.9468 12.5668 37.042 12.5302C37.1449 12.4878 37.1904 12.4501 37.165 12.3906C37.1412 12.3298 37.073 12.3357 36.953 12.3841C36.6177 12.5188 36.0854 12.7619 35.9824 12.8028C35.9747 12.8058 35.4216 12.9971 34.9818 13.1725C34.8618 13.2208 34.8085 13.263 34.8337 13.3223C34.8575 13.3835 34.9164 13.3802 35.0115 13.3421C35.1051 13.3041 35.2561 13.255 35.3307 13.2444C35.6397 13.1912 35.765 13.3009 35.9011 13.5877C36.0297 13.857 36.1281 14.0978 36.6605 15.4098L37.0977 16.4888C37.4576 17.3769 37.748 18.1643 37.4673 18.8284C37.2626 19.3114 36.847 19.6176 36.4681 19.7699C36.1763 19.8869 35.7653 20.0103 35.2491 19.8465C34.6882 19.6691 34.2245 19.2433 33.7174 17.9922L33.2265 16.7837C32.6941 15.473 32.5974 15.2307 32.5014 14.9483C32.3967 14.6391 32.4059 14.4642 32.6203 14.3284C32.7173 14.27 32.7658 14.2403 32.8595 14.2022C32.9452 14.1687 32.9907 14.131 32.9654 14.0699C32.9416 14.0091 32.875 14.0168 32.7457 14.0681C32.4351 14.1923 31.9044 14.4354 31.6971 14.5172C31.4398 14.6212 30.8865 14.8111 30.4312 14.9939C30.3019 15.0469 30.2485 15.0873 30.2722 15.1482C30.2974 15.2078 30.3564 15.2044 30.4499 15.1664C30.5717 15.118 30.7212 15.0691 30.7973 15.0584C31.1049 15.0053 31.2301 15.1163 31.3664 15.4016C31.4949 15.671 31.593 15.9133 32.1257 17.2238L32.6372 18.4841Z" fill="#F3EB1D"/>
<path d="M41.2041 13.6123L41.2319 13.6084C41.4233 13.7595 42.6078 14.739 43.7552 15.5922C44.8507 16.4057 46.203 17.4462 46.8636 17.9172C46.9785 18.0049 47.1042 18.0897 47.2051 18.0764C47.2874 18.0642 47.3135 17.9764 47.2823 17.7744L46.532 11.9551C46.4669 11.4381 46.5118 11.2345 46.758 11.1253C46.864 11.0827 46.9385 11.0718 47.0302 11.0584C47.1404 11.0435 47.1905 11.0075 47.1836 10.9531C47.1721 10.8785 47.0792 10.8828 46.9597 10.9003C46.5096 10.9635 46.1646 11.0397 46.062 11.053C45.8698 11.0797 45.4247 11.1151 44.9466 11.1824C44.8084 11.201 44.7089 11.2236 44.7203 11.2981C44.7287 11.3526 44.7686 11.3752 44.8789 11.3605C45.0077 11.3417 45.2281 11.3108 45.3747 11.348C45.6077 11.4087 45.7169 11.572 45.8077 12.1317L46.5058 16.2492L46.4606 16.256C46.2828 16.1299 44.847 14.9793 44.1301 14.4418C42.5934 13.2956 40.9797 12.0186 40.8527 11.9152C40.672 11.7718 40.5715 11.663 40.4706 11.6777C40.379 11.6898 40.3694 11.8228 40.3961 12.0077L41.1088 17.4374C41.2161 18.2387 41.2197 18.5115 40.9907 18.6181C40.8675 18.6727 40.7042 18.7048 40.585 18.7225C40.4917 18.7343 40.4401 18.7611 40.4485 18.8153C40.4598 18.8993 40.5436 18.8965 40.663 18.8805C41.1411 18.8133 41.5698 18.7251 41.652 18.7128C41.8274 18.6887 42.1981 18.6641 42.7956 18.5808C42.9245 18.5636 43.0054 18.5326 42.9941 18.4596C42.9855 18.4037 42.9286 18.3933 42.8261 18.4082C42.6802 18.4282 42.5034 18.4431 42.3396 18.4101C42.1467 18.3719 41.9919 18.1487 41.8679 17.4334L41.2041 13.6123Z" fill="#F3EB1D"/>
<path d="M53.7998 18.2869C54.2904 18.3292 54.816 18.2899 55.3009 18.0332C56.003 17.6539 56.2559 17.0331 56.2969 16.4949C56.3659 15.6167 56.0186 14.9439 54.9622 14.0076L54.7187 13.7905C53.9963 13.1428 53.8072 12.7999 53.8406 12.3746C53.8837 11.8196 54.3313 11.4567 55.0166 11.5151C55.6202 11.566 55.867 11.8653 55.9915 12.0535C56.1679 12.311 56.1917 12.6011 56.1846 12.6846C56.1753 12.7957 56.1994 12.8535 56.2644 12.8596C56.3386 12.8658 56.3721 12.7934 56.3874 12.5897C56.4447 11.8689 56.5024 11.6036 56.5117 11.4832C56.5157 11.418 56.4727 11.3864 56.3909 11.3599C56.1551 11.2744 55.7728 11.1494 55.1707 11.0988C53.8837 10.9895 52.9749 11.6497 52.895 12.6673C52.8372 13.4173 53.1379 14.0953 54.0944 14.9769L54.4954 15.3458C55.216 16.0136 55.3217 16.4509 55.2864 16.904C55.249 17.3941 54.7975 17.9242 53.9636 17.8548C53.3897 17.8063 52.8623 17.5093 52.7118 16.8079C52.6785 16.6462 52.6564 16.4491 52.6656 16.3285C52.6712 16.2543 52.6692 16.1706 52.5859 16.1626C52.5112 16.1565 52.476 16.2565 52.4556 16.3939C52.4351 16.5422 52.355 17.0936 52.3143 17.6024C52.2993 17.8066 52.3235 17.8548 52.4664 17.932C52.8508 18.1427 53.263 18.2422 53.7998 18.2869Z" fill="#F3EB1D"/>
<path d="M60.0668 16.516C59.8667 17.3465 59.6941 18.0586 59.5571 18.4249C59.4661 18.6809 59.3645 18.8652 59.1754 18.8565C59.089 18.854 58.9758 18.8445 58.8419 18.8112C58.7326 18.7848 58.6905 18.8022 58.68 18.8481C58.6646 18.9112 58.721 18.9532 58.8381 18.983C59.1986 19.0726 59.7737 19.1873 59.9818 19.2383C60.2344 19.3014 60.7976 19.4696 61.3938 19.6173C61.4923 19.642 61.5716 19.6333 61.587 19.5701C61.5972 19.5257 61.5594 19.4875 61.4593 19.4629C61.3236 19.4293 61.1301 19.3618 61.0073 19.3116C60.7462 19.2081 60.7402 18.9971 60.7739 18.738C60.8219 18.3381 60.9944 17.6259 61.1959 16.7971L62.0917 13.1011L63.2218 13.4116C64.0208 13.6287 64.2043 13.9424 64.1647 14.181L64.1501 14.2831C64.1268 14.4203 64.1333 14.47 64.2059 14.4876C64.2598 14.5015 64.2917 14.4511 64.3217 14.3639C64.3797 14.1286 64.5564 13.5141 64.6025 13.3251C64.6351 13.1898 64.6395 13.1324 64.5762 13.1167C64.5407 13.1079 64.4632 13.1088 64.3209 13.1016C64.1818 13.0865 63.9763 13.0635 63.6884 12.9915L60.1126 12.1028C59.8138 12.029 59.4753 11.9261 59.2201 11.8334C58.9988 11.7603 58.9301 11.6469 58.8593 11.629C58.8038 11.615 58.764 11.6636 58.709 11.7734C58.6732 11.8405 58.3023 12.618 58.2682 12.7628C58.2442 12.8626 58.2508 12.9107 58.3139 12.9266C58.368 12.9405 58.4041 12.9107 58.4396 12.8437C58.4753 12.7764 58.5473 12.6796 58.6692 12.567C58.8526 12.4019 59.0802 12.4101 59.6091 12.5234L60.9624 12.8217L60.0668 16.516Z" fill="#F3EB1D"/>
<path d="M67.1503 19.0656C67.1933 19.084 67.2113 19.1107 67.2118 19.1618L67.174 21.2131C67.1749 21.3339 67.084 21.3858 67.0157 21.3778C66.9268 21.3504 66.8864 21.3541 66.8652 21.4062C66.839 21.4659 66.9437 21.509 67.0941 21.5812C67.7757 21.8843 68.4027 22.1457 68.7131 22.273C69.0309 22.4054 69.1144 22.4216 69.1437 22.3526C69.168 22.2929 69.1282 22.2655 69.0591 22.2375C68.9563 22.1943 68.8306 22.1321 68.7128 22.0533C68.5493 21.9356 68.3494 21.712 68.3394 20.8042C68.3235 19.2718 68.3533 15.2704 68.3397 14.7138C68.335 14.48 68.3151 14.3818 68.2385 14.3487C68.1523 14.3139 68.0611 14.3859 67.8571 14.5927L63.5186 19.011C63.1707 19.3689 62.8889 19.5922 62.4714 19.4804C62.3992 19.46 62.2758 19.418 62.1975 19.3864C62.1299 19.3568 62.0882 19.3604 62.0671 19.4123C62.0392 19.4799 62.0834 19.5197 62.1954 19.5661C62.6427 19.7513 63.1258 19.9221 63.2209 19.9619C63.4867 20.0728 63.8459 20.2513 64.1207 20.3653C64.2159 20.4051 64.2748 20.4097 64.3024 20.3408C64.3236 20.2887 64.304 20.2617 64.2011 20.2186L64.0719 20.1658C63.8062 20.0548 63.7749 19.91 63.8369 19.7568C63.8792 19.6541 64.0071 19.4655 64.181 19.2874L65.1268 18.3057C65.1648 18.2602 65.1896 18.2514 65.2327 18.2682L67.1503 19.0656ZM65.5808 17.9118C65.5454 17.8969 65.5476 17.8677 65.5695 17.8371L67.2222 16.0643C67.2446 16.0338 67.2793 15.9992 67.3054 16.0093C67.3316 16.0208 67.3229 16.0671 67.3176 16.1041L67.2258 18.535C67.2237 18.5642 67.2046 18.5871 67.1616 18.5688L65.5808 17.9118Z" fill="#F3EB1D"/>
<path d="M71.7929 21.6147C71.2815 22.2954 70.8409 22.8793 70.5703 23.1618C70.3855 23.3589 70.2196 23.4884 70.0482 23.4057C69.97 23.369 69.8691 23.3177 69.7583 23.232C69.6685 23.1658 69.6221 23.1642 69.5947 23.2021C69.5561 23.2535 69.5905 23.3149 69.6877 23.3878C69.9858 23.6126 70.47 23.9456 70.6402 24.0734C70.8486 24.2319 71.3008 24.6072 71.7917 24.9792C71.8723 25.0406 71.9492 25.0634 71.9878 25.0116C72.0166 24.974 71.9961 24.9236 71.914 24.8623C71.8031 24.7783 71.65 24.6401 71.5565 24.5458C71.3569 24.3489 71.4346 24.1513 71.5674 23.9281C71.7699 23.5812 72.2104 22.9973 72.7235 22.3166L75.0063 19.2836L75.9267 20.0145C76.5768 20.5294 76.622 20.8888 76.4913 21.0923L76.4381 21.1787C76.3623 21.2957 76.3487 21.3432 76.4079 21.3887C76.452 21.4225 76.5009 21.3885 76.5646 21.3208C76.7089 21.1286 77.1163 20.6351 77.2317 20.4792C77.3168 20.3688 77.3431 20.3184 77.2895 20.2795C77.2608 20.2571 77.1902 20.2269 77.0618 20.1638C76.9395 20.0949 76.7592 19.9932 76.5206 19.8135L73.5772 17.5882C73.3322 17.4023 73.0608 17.1752 72.8609 16.9891C72.6867 16.8347 72.6682 16.7041 72.6089 16.6588C72.5651 16.6249 72.5083 16.6524 72.4135 16.7316C72.3549 16.7808 71.7072 17.3457 71.6172 17.4653C71.5564 17.5455 71.5427 17.5947 71.5943 17.6334C71.6399 17.6674 71.6838 17.6549 71.7438 17.6073C71.8024 17.5596 71.9076 17.4978 72.0655 17.4438C72.2983 17.3647 72.5051 17.4626 72.948 17.7743L74.0772 18.5817L71.7929 21.6147Z" fill="#F3EB1D"/>
<path d="M76.3936 24.756C75.7715 25.339 75.2391 25.8385 74.9228 26.0701C74.7021 26.2267 74.521 26.3325 74.3661 26.2225C74.2954 26.1729 74.2051 26.1044 74.1105 26.0031C74.0328 25.9211 73.9882 25.9121 73.9535 25.944C73.9066 25.9879 73.9317 26.055 74.014 26.1436C74.1422 26.2796 74.3208 26.4429 74.4674 26.5994C74.6277 26.7561 74.7681 26.9064 74.8381 26.9807C75.0287 27.1847 75.2204 27.4025 75.4809 27.707C75.7476 28.0053 76.0856 28.392 76.5629 28.9026C76.8053 29.1603 76.8631 29.2219 77.0834 29.1044C77.2504 29.0121 77.761 28.6357 77.9165 28.4904C77.9841 28.4268 78.0374 28.377 77.9873 28.3217C77.9413 28.2742 77.9024 28.2858 77.8148 28.3427C77.4942 28.554 77.2752 28.6052 77.0287 28.5039C76.781 28.404 76.5141 28.118 76.3479 27.9409C75.6968 27.2487 75.6966 27.0442 76.1497 26.5939C76.3399 26.4044 76.9679 25.8279 77.1972 25.6127L77.7313 25.1131C77.772 25.0738 77.8052 25.056 77.8368 25.0907C77.9895 25.2535 78.6141 25.933 78.7223 26.0748C78.9303 26.3516 78.9181 26.5405 78.8152 26.7024C78.7469 26.8047 78.659 26.8865 78.5976 26.9565C78.5646 26.9883 78.55 27.0282 78.5942 27.0756C78.6522 27.1356 78.7261 27.0661 78.7795 27.0162C78.8282 26.972 79.1167 26.7384 79.2579 26.6192C79.6279 26.3235 79.7621 26.249 79.8027 26.2111C79.8422 26.1732 79.838 26.1406 79.8121 26.1138C79.78 26.079 79.7211 26.0839 79.6221 26.0864C79.4963 26.0885 79.3814 26.0053 79.2151 25.8546C79.0545 25.7117 78.3211 24.9292 78.1808 24.7807C78.1427 24.7396 78.1632 24.7077 78.2103 24.6638L79.9195 23.0619C79.9665 23.0164 79.9992 23.0109 80.0311 23.0457C80.1594 23.1817 80.8145 23.9082 80.9101 24.0359C81.1881 24.4133 81.1703 24.5586 81.0936 24.7196C81.0456 24.8302 80.9369 24.944 80.8899 24.988C80.8286 25.0454 80.8078 25.0899 80.8521 25.1387C80.8963 25.1862 80.9491 25.161 80.9899 25.1371C81.0837 25.074 81.3944 24.8098 81.4681 24.7524C81.7971 24.4823 81.9108 24.4399 81.9581 24.3959C81.9909 24.3642 82.0116 24.3321 81.9813 24.2974C81.9494 24.264 81.8907 24.2411 81.8507 24.214C81.7864 24.1723 81.6716 24.0769 81.5372 23.9593C81.4087 23.8373 80.1402 22.4843 79.9359 22.2661C79.8459 22.1713 79.7075 22.0089 79.5475 21.8257C79.3889 21.6566 79.2107 21.4529 79.0384 21.2696C78.9423 21.1668 78.8839 21.1316 78.8368 21.1769C78.7899 21.2208 78.8136 21.274 78.884 21.3482C78.9738 21.4449 79.0758 21.5664 79.1133 21.6337C79.2751 21.9018 79.2188 22.0571 79.0015 22.2864C78.7986 22.502 78.6101 22.679 77.5828 23.642L76.3936 24.756Z" fill="#F3EB1D"/>
<path fill-rule="evenodd" clip-rule="evenodd" d="M15.1914 37.5248C16.0256 37.5248 16.7017 38.2009 16.7017 39.0349C16.7017 39.869 16.0256 40.5452 15.1914 40.5452C14.3573 40.5452 13.6812 39.869 13.6812 39.0349C13.6812 38.2009 14.3573 37.5248 15.1914 37.5248Z" fill="white"/>
<path fill-rule="evenodd" clip-rule="evenodd" d="M86.3083 37.5248C87.1422 37.5248 87.8183 38.2009 87.8183 39.0349C87.8183 39.869 87.1422 40.5452 86.3083 40.5452C85.4742 40.5452 84.7981 39.869 84.7981 39.0349C84.7981 38.2009 85.4742 37.5248 86.3083 37.5248Z" fill="white"/>
<path fill-rule="evenodd" clip-rule="evenodd" d="M49.9681 20.7399C66.375 20.7399 79.6756 34.0405 79.6756 50.4475C79.6756 66.8544 66.375 80.1549 49.9681 80.1549C33.5611 80.1549 20.2606 66.8544 20.2606 50.4475C20.2606 34.0405 33.5611 20.7399 49.9681 20.7399Z" fill="#FDFBDD"/>
</g>
<defs>
<pattern id="pattern0_2549_1310" patternContentUnits="objectBoundingBox" width="1" height="1">
<use xlink:href="#image0_2549_1310" transform="scale(0.00970874 0.0143841)"/>
</pattern>
<clipPath id="clip0_2549_1310">
<rect width="100" height="100" fill="white"/>
</clipPath>
</defs>
</svg>
